<svg xmlns="http://www.w3.org/2000/svg" width="31.852" height="32.272" viewBox="0 0 31.852 32.272">
  <g id="Group_21069" data-name="Group 21069" transform="translate(-4922.673 -190.129)">
    <g id="Group_20936" data-name="Group 20936" transform="translate(4923.423 191.025)">
      <path id="Path_19787" data-name="Path 19787" d="M4929.114,219.918h-5.691V200.925l15.176-9.9,15.176,9.9v18.992h-5.692" transform="translate(-4923.423 -191.025)" fill="none" stroke="#fff" stroke-miterlimit="10" stroke-width="1.5"/>
    </g>
    <path id="Path_19788" data-name="Path 19788" d="M4930.716,202.339h.011a6.324,6.324,0,0,1,6.321,6.325" transform="translate(1.55 2.406)" fill="none" stroke="#fff" stroke-miterlimit="10" stroke-width="1.5"/>
    <path id="Path_19788-2" data-name="Path 19788" d="M4935.938,208.635a6.324,6.324,0,0,1,6.485-6.156h.011" transform="translate(2.661 2.435)" fill="none" stroke="#fff" stroke-miterlimit="10" stroke-width="1.5"/>
    <path id="Path_19788-3" data-name="Path 19788" d="M4930.716,209.636h.011a6.324,6.324,0,0,1,6.321,6.325" transform="translate(1.55 3.957)" fill="none" stroke="#fff" stroke-miterlimit="10" stroke-width="1.5"/>
    <path id="Path_19788-4" data-name="Path 19788" d="M4935.938,215.932a6.324,6.324,0,0,1,6.485-6.156h.011" transform="translate(2.661 3.986)" fill="none" stroke="#fff" stroke-miterlimit="10" stroke-width="1.5"/>
    <line id="Line_2543" data-name="Line 2543" y2="22.226" transform="translate(4938.599 200.175)" fill="none" stroke="#fff" stroke-miterlimit="10" stroke-width="1.5"/>
  </g>
</svg>
