<svg xmlns="http://www.w3.org/2000/svg" width="42.75" height="35.628" viewBox="0 0 42.75 35.628">
  <g id="Group_20933" data-name="Group 20933" transform="translate(-4835.976 -192.863)">
    <path id="Path_19783" data-name="Path 19783" d="M4859.993,213.135a3.04,3.04,0,1,1-4.153,1.114h0a3.04,3.04,0,0,1,4.153-1.114" transform="translate(8.835 8.75)" fill="none" stroke="#fff" stroke-miterlimit="10" stroke-width="1.5"/>
    <path id="Path_19784" data-name="Path 19784" d="M4853.216,208.962a3.041,3.041,0,1,1-4.154,1.114,3.04,3.04,0,0,1,4.154-1.114" transform="translate(5.731 6.839)" fill="none" stroke="#fff" stroke-miterlimit="10" stroke-width="1.5"/>
    <path id="Path_19785" data-name="Path 19785" d="M4846.434,213.133a3.04,3.04,0,1,1-4.153,1.114h0a3.04,3.04,0,0,1,4.153-1.114" transform="translate(2.628 8.749)" fill="none" stroke="#fff" stroke-miterlimit="10" stroke-width="1.5"/>
    <path id="Path_19786" data-name="Path 19786" d="M4836.133,216.146h.007A21.689,21.689,0,0,0,4848.3,212.7a17.086,17.086,0,0,1,18.245,0,21.689,21.689,0,0,0,12.163,3.443m-12.921-22.534h4.561a8.362,8.362,0,0,1-8.362,8.362h-4.562a8.361,8.361,0,0,1,8.361-8.362Zm-12.925,8.363a8.364,8.364,0,0,1-8.363-8.362h4.562a8.361,8.361,0,0,1,8.363,8.36h-4.562Z" fill="none" stroke="#fff" stroke-miterlimit="10" stroke-width="1.5"/>
  </g>
</svg>
