<svg id="Group_21303" data-name="Group 21303" xmlns="http://www.w3.org/2000/svg" xmlns:xlink="http://www.w3.org/1999/xlink" width="24.649" height="41.071" viewBox="0 0 24.649 41.071">
  <defs>
    <clipPath id="clip-path">
      <rect id="Rectangle_10042" data-name="Rectangle 10042" width="24.649" height="41.071" transform="translate(0 0)" fill="#fff"/>
    </clipPath>
  </defs>
  <g id="Group_21304" data-name="Group 21304" clip-path="url(#clip-path)">
    <path id="Path_20341" data-name="Path 20341" d="M24.509,13.086a1,1,0,0,0-1-.986H19.967L22.949.5,21.011,0,17.9,12.1H1.006a1.014,1.014,0,0,0-.744.35,1.037,1.037,0,0,0-.245.8c.067.593.025,6.507-.017,10.1a.927.927,0,0,0,.022.216L3.137,38.505a3.237,3.237,0,0,0,3.156,2.566H18.357a3.233,3.233,0,0,0,3.158-2.58l3.113-15.266a.971.971,0,0,0,.021-.214ZM19.556,38.092a1.228,1.228,0,0,1-1.2.979H6.293a1.23,1.23,0,0,1-1.2-.974L2,23.254c.028-2.333.074-6.956.039-9.154H17.388L12.361,33.66l1.937.5L19.453,14.1h3.07l.125,8.831Z" fill="#fff"/>
  </g>
</svg>
