<svg xmlns="http://www.w3.org/2000/svg" width="28.001" height="32.669" viewBox="0 0 28.001 32.669">
  <g id="Group_21290" data-name="Group 21290" transform="translate(-1006 -704)">
    <path id="Path_19661" data-name="Path 19661" d="M151.9,77.462h21a3.5,3.5,0,0,0,3.5-3.5l-.006-16.451-1.167-11.667a1.166,1.166,0,0,0-1.161-1.05H169.4a1.166,1.166,0,0,0-1.167,1.167v7H156.565v-7a1.167,1.167,0,0,0-1.167-1.167h-4.667a1.166,1.166,0,0,0-1.161,1.05L148.4,57.627V73.961a3.5,3.5,0,0,0,3.5,3.5Zm-.11-30.335h2.444v7a1.167,1.167,0,0,0,1.167,1.167h14a1.166,1.166,0,0,0,1.167-1.167v-7h2.445l1.055,10.5V73.962a1.168,1.168,0,0,1-1.167,1.167h-21a1.168,1.168,0,0,1-1.167-1.167l-.006-16.218Z" transform="translate(857.602 659.207)" fill="#fff"/>
    <line id="Line_2500" data-name="Line 2500" x2="6.407" y2="6.407" transform="translate(1016.797 721.202)" fill="none"/>
    <line id="Line_2501" data-name="Line 2501" x1="6.407" y2="6.407" transform="translate(1016.797 721.202)" fill="none"/>
  </g>
</svg>
