<svg id="Group_21310" data-name="Group 21310" xmlns="http://www.w3.org/2000/svg" xmlns:xlink="http://www.w3.org/1999/xlink" width="40.076" height="26.192" viewBox="0 0 40.076 26.192">
  <defs>
    <clipPath id="clip-path">
      <rect id="Rectangle_10049" data-name="Rectangle 10049" width="40.076" height="26.192" transform="translate(0 0)" fill="none"/>
    </clipPath>
  </defs>
  <g id="Group_21309" data-name="Group 21309" clip-path="url(#clip-path)">
    <path id="Path_20345" data-name="Path 20345" d="M36.036,22.534H3.956a1,1,0,0,1-1-1,17.04,17.04,0,1,1,34.08,0,1,1,0,0,1-1,1m-31.047-2H35a15.04,15.04,0,0,0-30.014,0" fill="#fff"/>
    <path id="Path_20346" data-name="Path 20346" d="M20,6.494a3.247,3.247,0,1,1,3.247-3.247A3.25,3.25,0,0,1,20,6.494M20,2a1.247,1.247,0,1,0,1.247,1.247A1.248,1.248,0,0,0,20,2" fill="#fff"/>
    <path id="Path_20347" data-name="Path 20347" d="M37.711,26.192H2.365A2.368,2.368,0,0,1,0,23.827V22.9a2.368,2.368,0,0,1,2.365-2.365H37.711A2.369,2.369,0,0,1,40.076,22.9v.928a2.368,2.368,0,0,1-2.365,2.365M2.365,22.534A.366.366,0,0,0,2,22.9v.928a.366.366,0,0,0,.365.365H37.711a.366.366,0,0,0,.365-.365V22.9a.366.366,0,0,0-.365-.365Z" fill="#fff"/>
  </g>
</svg>
