<svg xmlns="http://www.w3.org/2000/svg" xmlns:xlink="http://www.w3.org/1999/xlink" width="30.601" height="37.374" viewBox="0 0 30.601 37.374">
  <defs>
    <clipPath id="clip-path">
      <rect id="Rectangle_10041" data-name="Rectangle 10041" width="30.601" height="37.374" transform="translate(0 0)" fill="#fff"/>
    </clipPath>
  </defs>
  <g id="Group_21302" data-name="Group 21302" transform="translate(0 0.001)">
    <g id="Group_21301" data-name="Group 21301" clip-path="url(#clip-path)">
      <path id="Path_20340" data-name="Path 20340" d="M29.6,4.684H24.962L21.936.421a.979.979,0,0,0-.815-.415V0H9.481V.006a.984.984,0,0,0-.816.415L5.639,4.684H1a1,1,0,0,0-1,1L0,16.492l1,17.55a3.337,3.337,0,0,0,3.332,3.332H26.269A3.322,3.322,0,0,0,29.6,34.1l1-17.995V5.684a1,1,0,0,0-1-1m-6.423.942-4.126,4.812L16.761,8.246a30.314,30.314,0,0,0,4.441-5.4Zm-8.37,8.761h.985l2.261,12.744L15.3,30.184l-2.754-3.053Zm1.15-2H14.643l-.627-1.542L15.3,9.617l1.285,1.229ZM15.3,6.872A28.909,28.909,0,0,1,11.239,2h8.124A28.852,28.852,0,0,1,15.3,6.872M9.4,2.842a30.278,30.278,0,0,0,4.439,5.4l-2.291,2.192L7.423,5.626Zm18.2,31.2a1.334,1.334,0,0,1-1.332,1.332H4.332A1.35,1.35,0,0,1,3,33.985L2,16.436V6.684H5.7l5.021,5.858a1,1,0,0,0,.709.348h.05a1,1,0,0,0,.691-.277l.294-.281.474,1.164L10.492,27.263a1,1,0,0,0,.242.844l3.824,4.24a1,1,0,0,0,1.484,0l3.825-4.24a1,1,0,0,0,.242-.844L17.666,13.5l.474-1.164.293.281a1,1,0,0,0,.691.277h.05a1,1,0,0,0,.709-.348l5.023-5.858H28.6l0,9.363Z" fill="#fff"/>
    </g>
  </g>
</svg>
