<svg xmlns="http://www.w3.org/2000/svg" width="20.87" height="20.871" viewBox="0 0 20.87 20.871">
  <g id="Group_20705" data-name="Group 20705" transform="translate(-1135.464 -982.74)">
    <path id="Path_18772" data-name="Path 18772" d="M1149.858,997.635a6.743,6.743,0,0,1-6.162,1.66,12.6,12.6,0,0,1-2.514-.716c-.316-.125-.568-.24-.737-.322-.085-.041-.149-.073-.191-.094l-.044-.024-.01,0h0l-.431.784-.431.785h0l.006,0,.019.011.066.033c.055.03.135.069.236.118.2.1.491.229.85.372a14.447,14.447,0,0,0,2.878.817,8.523,8.523,0,0,0,7.725-2.159Zm5.2-14-.894-.029h0v.024l0,.082c0,.073-.008.182-.017.324-.017.285-.047.7-.094,1.208-.1,1.021-.267,2.423-.566,3.952-.609,3.115-1.714,6.534-3.619,8.44l1.265,1.265c2.316-2.316,3.493-6.215,4.11-9.362.314-1.6.492-3.066.591-4.129.05-.532.081-.966.1-1.268.01-.15.016-.268.019-.351l0-.093v-.035h0Zm-14,5.2c1.908-1.908,5.326-3.012,8.441-3.622,1.528-.3,2.93-.47,3.951-.565.509-.048.923-.078,1.207-.094.142-.008.252-.014.324-.017l.082,0h.024l-.029-.894-.03-.893h-.035l-.094,0c-.081,0-.2.01-.351.019-.3.018-.735.048-1.267.1-1.062.1-2.527.278-4.129.592-3.146.615-7.043,1.794-9.362,4.112Zm-1.283,10.088.784-.431h0l0-.01-.024-.044c-.022-.042-.054-.106-.094-.191-.082-.169-.2-.421-.322-.737a12.583,12.583,0,0,1-.716-2.513,6.741,6.741,0,0,1,1.66-6.163l-1.265-1.265a8.517,8.517,0,0,0-2.159,7.728,14.366,14.366,0,0,0,.817,2.876c.143.359.276.648.372.85.049.1.089.18.118.236l.035.066.01.019,0,.006v0h0S1138.987,999.35,1139.77,998.918Zm15.284-15.285.893.03a.893.893,0,0,0-.923-.923Zm-15.284,15.285-.784.432a.889.889,0,0,0,.353.353Z" transform="translate(0.385 0)" fill="#28d8af"/>
    <path id="Path_18773" data-name="Path 18773" d="M1147.651,989l-11.926,11.926,1.265,1.265,11.926-11.926Zm-11.926,11.926a.895.895,0,0,0,1.265,1.265Zm13.191-10.66a.895.895,0,0,0-1.265-1.265Z" transform="translate(0 1.155)" fill="#28d8af"/>
  </g>
</svg>
